<svg xmlns="http://www.w3.org/2000/svg" viewBox="0 0 64 64" shape-rendering="crispEdges">
  <rect width="64" height="64" fill="#0000"/>
  <g fill="#0e1f3b">
    <rect x="12" y="12" width="8" height="8"/><rect x="20" y="12" width="8" height="8"/><rect x="28" y="12" width="8" height="8"/>
    <rect x="8" y="20" width="8" height="8"/><rect x="36" y="20" width="8" height="8"/>
    <rect x="8" y="28" width="8" height="8"/><rect x="36" y="28" width="8" height="8"/>
    <rect x="16" y="44" width="8" height="8"/><rect x="32" y="44" width="8" height="8"/>
  </g>
  <g fill="#ffc189">
    <rect x="16" y="20" width="8" height="8"/><rect x="24" y="20" width="8" height="8"/><rect x="32" y="20" width="8" height="8"/>
  </g>
  <g fill="#ff4c6d">
    <rect x="16" y="28" width="8" height="8"/><rect x="24" y="28" width="8" height="8"/><rect x="32" y="28" width="8" height="8"/>
    <rect x="16" y="36" width="8" height="8"/><rect x="24" y="36" width="8" height="8"/><rect x="32" y="36" width="8" height="8"/>
  </g>
  <g fill="#f6b73c"><rect x="40" y="28" width="8" height="8"/><rect x="48" y="28" width="8" height="8"/></g>
  <g fill="#d7e8ff"><rect x="40" y="36" width="8" height="8"/><rect x="48" y="36" width="8" height="8"/></g>
</svg>
